<?xml version="1.0" encoding="UTF-8" standalone="no"?><!DOCTYPE svg PUBLIC "-//W3C//DTD SVG 1.1//EN" "http://www.w3.org/Graphics/SVG/1.1/DTD/svg11.dtd"><svg width="100%" height="100%" viewBox="0 0 250 250" version="1.1" xmlns="http://www.w3.org/2000/svg" xmlns:xlink="http://www.w3.org/1999/xlink" xml:space="preserve" xmlns:serif="http://www.serif.com/" style="fill-rule:evenodd;clip-rule:evenodd;stroke-linejoin:round;stroke-miterlimit:2;"><g><g><circle cx="125" cy="125" r="125" style="fill:#0a192f;"/></g><path d="M145.991,195.38c0.251,0.004 0.504,0.006 0.759,0.006c8.04,0 14.097,-1.701 18.173,-5.102c4.076,-3.401 6.114,-7.379 6.114,-11.933c0,-2.923 -0.857,-5.411 -2.572,-7.463c-1.714,-2.052 -4.708,-3.837 -8.981,-5.355c-2.923,-1.012 -9.585,-2.811 -19.986,-5.397c-7.826,-1.94 -14.287,-4.14 -19.381,-6.599l14.2,-21.125c3.976,1.532 9.358,3.099 16.144,4.702c12.143,2.867 21.125,5.832 26.943,8.897c5.819,3.064 10.373,7.252 13.662,12.565c3.289,5.313 4.933,11.876 4.933,19.691c0,7.084 -1.967,13.718 -5.903,19.902c-3.935,6.184 -9.501,10.78 -16.697,13.788c-7.197,3.008 -16.164,4.512 -26.902,4.512c-2.48,-0 -4.869,-0.091 -7.169,-0.273l6.663,-20.816Zm20.718,-71.894c-1.245,-4.514 -3.274,-7.884 -6.086,-10.111c-2.637,-2.089 -6.263,-3.394 -10.878,-3.915l44.103,-75.701c2.572,0.598 -26.276,57.929 -24.039,58.825c2.1,0.842 4.053,1.816 5.857,2.921l-8.957,27.981Z" style="fill:#ffd700;fill-rule:nonzero;"/><path d="M48.104,155.03l62.487,-121.642l2.343,-0.086l35.334,69.174l-64.932,96.053l33.271,-61.88l-33.695,-0.424l-9.189,18.815l-25.619,-0.01Zm63.618,-75.746l-17.361,36.023l34.613,0.325l-17.252,-36.348Z" style="fill:#a22a39;"/></g></svg>