<?xml version="1.0" encoding="UTF-8" standalone="no"?><!DOCTYPE svg PUBLIC "-//W3C//DTD SVG 1.1//EN" "http://www.w3.org/Graphics/SVG/1.1/DTD/svg11.dtd"><svg width="100%" height="100%" viewBox="0 0 2370 2370" version="1.1" xmlns="http://www.w3.org/2000/svg" xmlns:xlink="http://www.w3.org/1999/xlink" xml:space="preserve" xmlns:serif="http://www.serif.com/" style="fill-rule:evenodd;clip-rule:evenodd;stroke-linejoin:round;stroke-miterlimit:2;"><rect id="Mesa-de-trabajo1" serif:id="Mesa de trabajo1" x="-79.779" y="-534.841" width="2480.32" height="3507.87" style="fill:none;"/><g id="Mesa-de-trabajo11" serif:id="Mesa de trabajo1"><g><circle cx="1184.79" cy="1184.79" r="1184.79" style="fill:#0d264d;"/><g><path d="M482.64,1484.06l585.75,-1163.47l23.302,-0l336.236,658.781l-621.849,914.137l319.752,-590.462l-319.752,-3.923l-90.236,180.473l-233.203,4.46Zm596.111,-730.277l-166.742,351.139l333.484,1.961l-166.742,-353.1Z" style="fill:#fff;"/><path d="M1079.13,1515.63l109.276,-156.682c-0,0 162.306,60.262 209.713,69.101c47.406,8.838 195.25,28.926 260.333,65.887c65.084,36.961 171.949,77.588 176.77,278.01c4.821,200.423 -158.289,283.987 -210.517,296.843c-52.227,12.856 -173.555,44.996 -336.665,16.07c-163.111,-28.926 -277.207,-121.329 -315.775,-149.451l108.472,-161.503c-0,-0 175.163,139.005 344.701,134.987c169.538,-4.017 201.678,-98.026 205.695,-138.201c4.018,-40.175 -29.729,-93.984 -99.633,-113.268l-217.749,-45.8c0,0 -198.464,-35.303 -234.621,-95.993Z" style="fill:#f7e034;"/><path d="M1886.95,288.314l-537.339,833.63c-0,-0 143.123,6.269 286.246,114.247l115.503,-156.925c-0,-0 -56.496,-55.241 -203.386,-116.759l338.976,-674.193Z" style="fill:#f7e034;"/></g></g></g></svg>