<?xml version="1.0" encoding="UTF-8" standalone="no"?><!DOCTYPE svg PUBLIC "-//W3C//DTD SVG 1.1//EN" "http://www.w3.org/Graphics/SVG/1.1/DTD/svg11.dtd"><svg width="100%" height="100%" viewBox="0 0 2134 2134" version="1.1" xmlns="http://www.w3.org/2000/svg" xmlns:xlink="http://www.w3.org/1999/xlink" xml:space="preserve" xmlns:serif="http://www.serif.com/" style="fill-rule:evenodd;clip-rule:evenodd;stroke-linejoin:round;stroke-miterlimit:2;"><g><circle cx="1066.67" cy="1066.67" r="1066.67" style="fill:#fff;"/><g><path d="M1687.01,300.484l-468.266,721.465c-0,0 100.669,-3.05 244.047,94.569l103.72,-135.752c0,0 -53.385,-48.809 -175.409,-97.619l295.908,-582.663Z" style="fill:#f7df1e;"/><path d="M446.328,1303.16l513.73,-1001.4l18.614,0l292.851,569.571l-541.03,789.209l275.478,-512.489l-275.478,1.24l-78.177,156.353l-205.988,-2.482Zm519.935,-623.549l-142.703,296.574l287.887,1.24l-145.184,-297.814Z" style="fill:#010000;"/><path d="M1004.88,1496.6c9.213,64.808 34.595,114.495 76.146,149.071c41.698,34.697 99.983,52.046 174.855,52.046c75.482,-0 131.484,-15.371 168.007,-46.111c36.524,-30.741 54.785,-66.807 54.785,-108.2c0,-37.132 -16.131,-66.351 -48.393,-87.656c-22.523,-14.609 -78.525,-33.175 -168.007,-55.698c-113.946,-28.774 -194.84,-53.876 -242.68,-75.307l96.502,-142.249c19.78,6.759 66.68,20.231 140.699,40.418c116.266,31.045 197.378,56.459 243.337,76.242c45.958,19.784 82.025,48.546 108.2,86.287c26.175,37.74 39.262,84.612 39.262,140.614c0,54.785 -15.978,106.374 -47.936,154.767c-31.958,48.394 -78.069,85.83 -138.332,112.31c-60.264,26.479 -128.44,39.719 -204.531,39.719c-126.005,-0 -222.031,-26.175 -288.077,-78.525c-30.071,-23.835 -55.189,-52.907 -75.35,-87.211l111.513,-170.517Z" style="fill:#f7df1e;fill-rule:nonzero;"/></g></g></svg>